<svg width="250" height="64" viewBox="0 0 250 64" fill="none" xmlns="http://www.w3.org/2000/svg">
<path d="M42.591 34.648C40.8473 32.3522 38.7281 30.3676 36.323 28.778L35.398 28.136C32.925 26.453 30.588 24.752 30.588 24.752C27.1568 22.3032 24.2467 19.1966 22.027 15.613C20.3513 12.9892 19.2038 10.0635 18.649 7C16.0539 11.9491 14.002 17.1644 12.529 22.555C9.38901 34.555 12.06 40.312 12.06 40.312C13.394 44.3708 15.8622 47.9628 19.1728 50.6635C22.4834 53.3641 26.498 55.0604 30.742 55.552C33.6175 55.8691 36.5275 55.5377 39.258 54.582C38.674 54.447 23.28 50.729 22.348 26.748V26.536C22.348 26.465 25.277 45.083 40.491 54.042C42.5636 53.1055 44.2284 51.4522 45.179 49.386C47.8 43.658 45.333 38.3 42.591 34.648Z" fill="#33EB70"/>
<path d="M72.108 51.5935C73.2494 51.5831 74.3773 51.3455 75.4259 50.8945C76.4744 50.4434 77.4226 49.788 78.215 48.9665C79.0991 48.1772 79.807 47.2107 80.2927 46.1297C80.7784 45.0487 81.031 43.8775 81.034 42.6925V42.6415C78.4587 44.9127 75.114 46.1161 71.6819 46.0063C68.2499 45.8965 64.9889 44.4817 62.564 42.0505C61.2883 40.8139 60.2793 39.3294 59.5989 37.6882C58.9186 36.047 58.5814 34.2839 58.608 32.5075C58.5817 30.7311 58.9191 28.9681 59.5994 27.327C60.2797 25.6858 61.2886 24.2012 62.564 22.9645C65.0931 20.4371 68.5222 19.0175 72.0975 19.0175C75.6729 19.0175 79.102 20.4371 81.631 22.9645C82.9078 24.1972 83.9191 25.6779 84.6026 27.3157C85.2862 28.9535 85.6277 30.7138 85.606 32.4885V42.6885C85.6056 44.4882 85.2269 46.2677 84.4946 47.9117C83.7623 49.5557 82.6927 51.0274 81.355 52.2315C80.1527 53.4703 78.7159 54.4575 77.1284 55.1358C75.5409 55.8142 73.8343 56.1699 72.108 56.1825C66.816 56.1825 62.86 54.1381 60.24 50.0495C60.0553 49.7622 59.9377 49.437 59.8959 49.0981C59.8542 48.7592 59.8893 48.4152 59.9987 48.0917C60.1082 47.7682 60.2891 47.4735 60.528 47.2295C60.767 46.9856 61.0579 46.7986 61.379 46.6825H61.456C61.9287 46.4775 62.4604 46.4547 62.9489 46.6182C63.4374 46.7818 63.8481 47.1203 64.102 47.5685C64.9666 48.8823 66.1613 49.9457 67.5665 50.6522C68.9717 51.3586 70.5378 51.6832 72.108 51.5935ZM81.035 32.3265C81.0021 29.9665 80.0356 27.7156 78.3471 26.0666C76.6586 24.4175 74.3855 23.5045 72.0254 23.5273C69.6653 23.5502 67.4104 24.5071 65.7541 26.1886C64.0979 27.8701 63.1752 30.1393 63.188 32.4995C63.1546 33.6923 63.3607 34.8798 63.7941 35.9917C64.2276 37.1035 64.8795 38.1172 65.7114 38.9728C66.5434 39.8283 67.5384 40.5084 68.6377 40.9728C69.737 41.4371 70.9182 41.6764 72.1115 41.6764C73.3049 41.6764 74.4861 41.4371 75.5854 40.9728C76.6847 40.5084 77.6797 39.8283 78.5116 38.9728C79.3436 38.1172 79.9955 37.1035 80.4289 35.9917C80.8624 34.8798 81.0685 33.6923 81.035 32.4995V32.3265Z" fill="#33EB70"/>
<path d="M102.125 19.0015C102.422 18.9939 102.718 19.0469 102.994 19.1572C103.27 19.2676 103.521 19.433 103.731 19.6435C103.939 19.8553 104.103 20.1064 104.213 20.3821C104.323 20.6578 104.378 20.9526 104.373 21.2495V21.3005C104.38 21.5946 104.326 21.8871 104.216 22.1598C104.105 22.4326 103.94 22.6799 103.731 22.8865C103.521 23.0969 103.27 23.2624 102.994 23.3727C102.718 23.4831 102.422 23.5361 102.125 23.5285H100.719C99.9829 23.5143 99.2519 23.6517 98.5713 23.9323C97.8907 24.2129 97.2751 24.6307 96.763 25.1595C96.2336 25.6819 95.8161 26.3065 95.5357 26.9954C95.2553 27.6842 95.118 28.4229 95.132 29.1665V43.7525C95.1414 44.0461 95.0892 44.3384 94.9786 44.6106C94.868 44.8827 94.7015 45.1287 94.49 45.3325C94.2833 45.542 94.0361 45.707 93.7633 45.8174C93.4906 45.9278 93.1981 45.9813 92.904 45.9745H92.833C92.5388 45.9813 92.2464 45.9278 91.9736 45.8174C91.7009 45.707 91.4536 45.542 91.247 45.3325C91.0354 45.1287 90.8689 44.8827 90.7584 44.6106C90.6478 44.3384 90.5955 44.0461 90.605 43.7525V29.1685C90.5993 27.8319 90.8585 26.5073 91.3678 25.2715C91.8771 24.0357 92.6262 22.913 93.572 21.9685C94.5059 21.0085 95.6265 20.25 96.8648 19.7397C98.1032 19.2294 99.4329 18.9782 100.772 19.0015H102.125Z" fill="#33EB70"/>
<path d="M132.116 26.8895C132.244 27.1581 132.318 27.4499 132.331 27.7474C132.345 28.0449 132.298 28.3421 132.195 28.6213C132.091 28.9005 131.932 29.156 131.728 29.3727C131.523 29.5893 131.278 29.7627 131.005 29.8825L121.905 33.9825L112.83 38.0825C113.642 39.1733 114.704 40.0532 115.926 40.6478C117.149 41.2425 118.497 41.5346 119.856 41.4995C121.71 41.4963 123.517 40.916 125.026 39.839C126.536 38.762 127.672 37.2418 128.278 35.4895C128.411 35.0249 128.699 34.6197 129.094 34.3407C129.489 34.0617 129.967 33.9254 130.449 33.9545C130.815 33.9471 131.177 34.0321 131.501 34.2016C131.826 34.3712 132.102 34.6198 132.305 34.9245C132.521 35.2148 132.658 35.5554 132.706 35.9139C132.753 36.2725 132.708 36.6371 132.575 36.9734C131.692 39.5939 129.996 41.8641 127.733 43.4534C125.449 45.1348 122.683 46.0356 119.847 46.0224C118.07 46.0474 116.307 45.7075 114.666 45.0238C113.026 44.3401 111.543 43.3271 110.31 42.0475C109.033 40.8119 108.023 39.3275 107.343 37.6861C106.662 36.0446 106.326 34.2811 106.354 32.5045C106.326 30.7279 106.663 28.9645 107.343 27.3231C108.024 25.6818 109.033 24.1973 110.31 22.9615C112.5 20.7672 115.379 19.3943 118.462 19.0738C121.545 18.7532 124.645 19.5046 127.239 21.2015C129.38 22.5866 131.074 24.5622 132.116 26.8895ZM119.856 23.6275C118.573 23.6277 117.305 23.9044 116.139 24.4388C114.972 24.9732 113.935 25.7526 113.097 26.7241C112.259 27.6955 111.64 28.8362 111.282 30.0684C110.925 31.3006 110.837 32.5953 111.025 33.8645L126.678 26.7975C125.861 25.7807 124.821 24.9657 123.638 24.4155C122.455 23.8653 121.162 23.5946 119.858 23.6245L119.856 23.6275Z" fill="#33EB70"/>
<path d="M162.211 26.8835C162.339 27.1532 162.411 27.4458 162.423 27.7439C162.436 28.042 162.389 28.3397 162.285 28.6193C162.181 28.8989 162.021 29.1548 161.817 29.3719C161.612 29.589 161.366 29.763 161.093 29.8835L151.999 33.9835L142.924 38.0835C143.734 39.1742 144.795 40.054 146.016 40.6487C147.238 41.2434 148.585 41.5356 149.943 41.5005C151.798 41.4966 153.606 40.916 155.117 39.839C156.628 38.7621 157.766 37.2421 158.375 35.4895C158.508 35.0232 158.796 34.6165 159.192 34.3371C159.588 34.0578 160.068 33.9227 160.552 33.9545C160.918 33.9477 161.28 34.033 161.604 34.2025C161.928 34.372 162.205 34.6203 162.408 34.9245C162.624 35.2149 162.762 35.5554 162.809 35.914C162.856 36.2725 162.811 36.6372 162.678 36.9735C161.792 39.5944 160.094 41.8645 157.829 43.4535C155.545 45.1358 152.78 46.0367 149.943 46.0225C148.165 46.0478 146.401 45.7081 144.759 45.0244C143.118 44.3406 141.634 43.3275 140.4 42.0475C139.123 40.8119 138.113 39.3275 137.433 37.6861C136.752 36.0447 136.416 34.2811 136.444 32.5045C136.416 30.7279 136.753 28.9645 137.433 27.3232C138.114 25.6818 139.123 24.1974 140.4 22.9615C142.589 20.773 145.465 19.4044 148.544 19.0852C151.623 18.766 154.718 19.5157 157.31 21.2085C159.459 22.5861 161.161 24.5583 162.21 26.8855L162.211 26.8835ZM149.945 23.6215C148.77 23.6179 147.605 23.8472 146.519 24.2962C145.432 24.7452 144.445 25.4049 143.615 26.2373C142.785 27.0698 142.129 28.0584 141.683 29.1461C141.237 30.2338 141.011 31.399 141.018 32.5745C141.017 33.0048 141.05 33.4345 141.118 33.8595L156.769 26.7945C155.95 25.7789 154.909 24.9649 153.726 24.4155C152.543 23.866 151.249 23.5957 149.945 23.6255V23.6215Z" fill="#33EB70"/>
<path d="M171.851 43.7525C171.862 44.0463 171.811 44.3392 171.7 44.6116C171.589 44.884 171.422 45.1297 171.209 45.3325C171.004 45.5422 170.758 45.7074 170.486 45.8179C170.214 45.9283 169.922 45.9817 169.629 45.9745H169.552C169.259 45.9816 168.967 45.9282 168.695 45.8178C168.423 45.7074 168.177 45.5422 167.972 45.3325C167.76 45.1287 167.594 44.8828 167.483 44.6106C167.373 44.3385 167.321 44.0461 167.33 43.7525V30.2275C167.308 28.7502 167.589 27.2839 168.154 25.9189C168.719 24.5538 169.558 23.3188 170.618 22.2895C171.658 21.2472 172.893 20.4202 174.253 19.8559C175.613 19.2917 177.071 19.0012 178.543 19.0012C180.015 19.0012 181.473 19.2917 182.833 19.8559C184.193 20.4202 185.428 21.2472 186.468 22.2895C187.528 23.3188 188.367 24.5538 188.932 25.9189C189.497 27.2839 189.778 28.7502 189.756 30.2275V43.7525C189.748 44.3462 189.508 44.9131 189.088 45.333C188.669 45.7528 188.102 45.9923 187.508 46.0005H187.457C187.16 46.0097 186.863 45.9574 186.587 45.8469C186.311 45.7365 186.06 45.5702 185.851 45.3585C185.638 45.1557 185.471 44.91 185.36 44.6376C185.249 44.3652 185.198 44.0723 185.209 43.7785V30.2275C185.22 29.3486 185.056 28.4763 184.727 27.6612C184.398 26.8461 183.911 26.1044 183.293 25.479C182.675 24.8537 181.94 24.3572 181.129 24.0184C180.318 23.6795 179.447 23.505 178.569 23.505C177.69 23.505 176.819 23.6795 176.008 24.0184C175.197 24.3572 174.462 24.8537 173.844 25.479C173.226 26.1044 172.739 26.8461 172.41 27.6612C172.081 28.4763 171.917 29.3486 171.928 30.2275L171.851 43.7525Z" fill="#33EB70"/>
<path d="M219.67 26.8884C219.799 27.1571 219.872 27.4489 219.885 27.7464C219.899 28.0439 219.852 28.3411 219.749 28.6203C219.645 28.8995 219.486 29.155 219.282 29.3717C219.077 29.5883 218.832 29.7617 218.559 29.8814L209.446 33.9814L200.371 38.0814C201.182 39.1718 202.242 40.0513 203.464 40.646C204.685 41.2407 206.032 41.533 207.39 41.4984C209.254 41.5067 211.073 40.9315 212.593 39.8536C214.114 38.7756 215.258 37.2488 215.867 35.4874C216.001 35.0218 216.289 34.6159 216.685 34.3367C217.081 34.0576 217.561 33.922 218.044 33.9524C218.41 33.9451 218.772 34.0301 219.096 34.1996C219.421 34.3692 219.697 34.6178 219.9 34.9224C220.116 35.2128 220.254 35.5534 220.301 35.9119C220.348 36.2705 220.303 36.6351 220.17 36.9714C219.285 39.5906 217.589 41.8601 215.328 43.4514C213.042 45.1342 210.274 46.0351 207.435 46.0204C205.656 46.0467 203.89 45.7075 202.248 45.0237C200.605 44.34 199.12 43.3263 197.885 42.0454C196.609 40.8089 195.6 39.3243 194.92 37.6831C194.24 36.042 193.902 34.2789 193.929 32.5024C193.902 30.7249 194.239 28.9606 194.919 27.3182C195.599 25.6757 196.609 24.19 197.885 22.9524C200.075 20.7625 202.951 19.3929 206.032 19.0737C209.112 18.7545 212.209 19.5051 214.801 21.1994C216.939 22.586 218.63 24.5619 219.67 26.8884ZM207.404 23.6264C206.122 23.6277 204.855 23.9052 203.689 24.44C202.523 24.9748 201.487 25.7544 200.649 26.7257C199.812 27.6971 199.194 28.8374 198.837 30.069C198.48 31.3007 198.392 32.5949 198.58 33.8634L214.231 26.7994C213.413 25.7818 212.372 24.9662 211.188 24.4159C210.004 23.8656 208.709 23.5955 207.404 23.6264Z" fill="#33EB70"/>
<path d="M236.309 19.0015C236.606 18.9939 236.902 19.0469 237.178 19.1572C237.454 19.2676 237.705 19.433 237.915 19.6435C238.123 19.8551 238.287 20.1061 238.398 20.3819C238.508 20.6576 238.562 20.9526 238.557 21.2495V21.3005C238.564 21.5947 238.511 21.8873 238.4 22.1601C238.29 22.4329 238.125 22.6801 237.915 22.8865C237.705 23.0969 237.454 23.2624 237.178 23.3727C236.902 23.4831 236.606 23.5361 236.309 23.5285H234.902C234.166 23.5143 233.435 23.6517 232.754 23.9323C232.074 24.2129 231.458 24.6307 230.946 25.1595C230.423 25.6765 230.009 26.2927 229.728 26.9721C229.446 27.6515 229.304 28.3802 229.308 29.1155V43.7525C229.318 44.0461 229.266 44.3386 229.155 44.6108C229.045 44.883 228.878 45.1289 228.666 45.3325C228.459 45.542 228.212 45.707 227.939 45.8174C227.667 45.9278 227.374 45.9813 227.08 45.9745H227.009C226.715 45.9817 226.422 45.9284 226.149 45.818C225.877 45.7075 225.629 45.5423 225.423 45.3325C225.211 45.1287 225.045 44.8827 224.934 44.6106C224.824 44.3384 224.772 44.0461 224.781 43.7525V29.1685C224.772 27.8314 225.03 26.5061 225.54 25.2699C226.049 24.0337 226.8 22.9113 227.748 21.9685C228.682 21.0085 229.803 20.25 231.041 19.7397C232.279 19.2294 233.609 18.9782 234.948 19.0015H236.309Z" fill="#33EB70"/>
</svg>
